<svg xmlns="http://www.w3.org/2000/svg" viewBox="0 0 104 30" width="104" height="30">
	<style>
		tspan { white-space:pre }
		.shp0 { fill: #ee252d } 
	</style>
	<path id="Shape 2" class="shp0" d="M15.22 12.55C10.95 12.55 6.57 15.67 6.57 19.51C6.57 20.97 7.06 22.53 8.42 23.49C9.09 24.03 9.09 24.81 8.32 25.66C7.41 26.66 6.08 27.44 4.74 27.44C3.13 27.44 1 25.91 1 22.96C1 21.32 2.05 17.81 6.25 14.61C10.66 11.2 14.45 10.06 18.79 9.78C27.97 2.35 35.4 1 40.79 1C46.68 1 51.93 2.92 54.59 3.98C56.98 4.91 66.22 8.82 72.77 11.73C79.64 14.61 85.56 16.35 89.62 16.35C92.88 16.35 97.58 15.18 97.58 11.13C97.58 9.63 96.98 8.6 96.17 8C95.72 7.61 95.37 7.04 95.37 6.54C95.37 5.05 96.7 2.77 99.01 2.77C101.6 2.77 103 5.4 103 7.39C103 12.79 97.19 16.46 93.27 18.09C86.05 25.87 78.76 29 71.69 29C66.5 29 61.53 27.58 54.94 25.16C49.97 23.31 34.35 16.85 28.07 14.82C22.3 13.01 19 12.55 15.29 12.55L15.22 12.55ZM35.36 3.95C30.56 3.95 26.01 6.4 23.77 10.02C26.5 10.06 30.63 10.66 37.46 13.19C44.29 15.53 56.91 21 61.32 22.53C66.22 24.17 70.92 25.52 75.58 25.52C80.79 25.52 85.45 23.78 87.91 19.3C83.04 19.94 78.45 19.16 71.69 16.49C66.5 14.47 52.21 7.82 47.38 6.15C43.31 4.76 39.39 3.95 35.43 3.95L35.36 3.95Z" />
</svg>